<?xml version="1.0" encoding="UTF-8" standalone="no"?>
<!-- Generator: Adobe Illustrator 13.0.2, SVG Export Plug-In . SVG Version: 6.00 Build 14948)  -->

<svg
   xmlns:dc="http://purl.org/dc/elements/1.1/"
   xmlns:cc="http://creativecommons.org/ns#"
   xmlns:rdf="http://www.w3.org/1999/02/22-rdf-syntax-ns#"
   xmlns:svg="http://www.w3.org/2000/svg"
   xmlns="http://www.w3.org/2000/svg"
   xmlns:sodipodi="http://sodipodi.sourceforge.net/DTD/sodipodi-0.dtd"
   xmlns:inkscape="http://www.inkscape.org/namespaces/inkscape"
   version="1.0"
   id="Ebene_1"
   x="0px"
   y="0px"
   width="368.64001"
   height="368.64001"
   viewBox="0 0 368.63998 368.63998"
   enable-background="new 0 0 566 566"
   xml:space="preserve"
   sodipodi:docname="SSC Napoli 1964 (variant).svg"
   inkscape:version="0.92.1 r15371"
   inkscape:export-filename="C:\Users\dmc\Desktop\LogoN\S964.png"
   inkscape:export-xdpi="96"
   inkscape:export-ydpi="96"><metadata
     id="metadata15"><rdf:RDF><cc:Work
         rdf:about=""><dc:format>image/svg+xml</dc:format><dc:type
           rdf:resource="http://purl.org/dc/dcmitype/StillImage" /><dc:title></dc:title></cc:Work></rdf:RDF></metadata><defs
     id="defs13" /><sodipodi:namedview
     pagecolor="#ffffff"
     bordercolor="#666666"
     borderopacity="1"
     objecttolerance="10"
     gridtolerance="10"
     guidetolerance="10"
     inkscape:pageopacity="0"
     inkscape:pageshadow="2"
     inkscape:window-width="1680"
     inkscape:window-height="988"
     id="namedview11"
     showgrid="false"
     inkscape:zoom="0.96873629"
     inkscape:cx="346.44057"
     inkscape:cy="304.28517"
     inkscape:window-x="-8"
     inkscape:window-y="-8"
     inkscape:window-maximized="1"
     inkscape:current-layer="Ebene_1"
     units="px" /><path
     d="M 0,184.3204 C 0.003564,82.522345 82.52239,0.00350474 184.32044,-3.5258789e-5 v 0 C 286.11761,0.00296474 368.63734,82.522345 368.64,184.3204 v 0 c -0.003,101.79717 -82.52239,184.3169 -184.31956,184.31956 v 0 C 82.52239,368.6373 0.00354,286.11757 0,184.3204 Z"
     id="path4"
     inkscape:connector-curvature="0"
     style="fill:#ffffff;fill-opacity:1;stroke-width:1" /><path
     d="M 59.25337,59.253335 C 27.238465,91.270905 7.449589,135.46582 7.447818,184.3204 v 0 c 0.0023,48.85368 19.790647,93.04773 51.805552,125.06706 v 0 c 32.01845,32.01402 76.21251,51.80291 125.06707,51.80468 v 0 c 48.85368,-0.002 93.04773,-19.79066 125.06706,-51.80468 v 0 c 32.01404,-32.01933 51.80291,-76.21338 51.80468,-125.06706 v 0 C 361.19018,135.46671 341.40154,91.272675 309.3875,59.253335 v 0 C 277.36817,27.238435 233.17412,7.4495547 184.32044,7.4477847 v 0 C 135.46588,7.4497847 91.27182,27.238435 59.25337,59.253335 Z"
     id="path6"
     inkscape:connector-curvature="0"
     style="fill:#199fd6;stroke-width:1" /><path
     d="m 67.202,288.27596 c 20.515,-2.394 30.088,-4.787 30.088,-27.353 V 98.856965 c -19.147,-23.592 -24.617,-24.618 -29.063,-24.618 v -8.548 H 140.37 L 259.014,211.68696 h 0.684 v -103.599 c 0,-20.514995 -4.103,-31.796995 -31.798,-33.848995 v -8.548 h 73.511 v 8.548 c -24.618,3.077 -26.669,10.941 -26.669,27.352995 v 201.386 h -9.574 l -152.15,-185.316 h -0.684 v 136.764 c 0,24.618 7.181,31.114 32.482,33.85 v 8.548 H 67.202 Z"
     id="path8"
     inkscape:connector-curvature="0"
     style="fill:#ffffff" /></svg>